<svg version="1.0" xmlns="http://www.w3.org/2000/svg" width="166.667" height="166.667" viewBox="0 0 125 125"><path d="M52.3 25.2c-.6.7-1.8 3.3-2.6 5.8-.9 2.5-3 8.3-4.7 13-6.5 17.5-10.1 27.6-11.6 32-.9 2.5-3 7.8-4.7 11.9-2.9 7.1-2.9 7.5-1.2 8.7 2.7 2 15.9 1.9 17.9-.2.9-.8 1.6-2 1.6-2.5s.9-2.8 2-5.2l2-4.2 11.5.1c6.9.1 12 .6 12.9 1.3.7.6 1.9 3.2 2.6 5.7.9 3.3 2 4.8 3.7 5.5 3.7 1.4 14.6 1.1 16.7-.4 1.8-1.3 1.8-1.6-.7-7.8-1.4-3.5-3.4-8.9-4.5-11.9s-3.9-10.7-6.3-17c-2.3-6.3-5.6-15.6-7.5-20.7-5.7-16-4.3-14.8-16-15.1-7.3-.2-10.4.1-11.1 1zm14.4 33c1.6 5.1 2.8 9.6 2.6 10-.6 1.1-12 1-12.7 0C56 67.2 62 49 63 49c.4 0 2.1 4.2 3.7 9.2z"/></svg>