<?xml version="1.0" standalone="no"?>
<!DOCTYPE svg PUBLIC "-//W3C//DTD SVG 20010904//EN"
 "http://www.w3.org/TR/2001/REC-SVG-20010904/DTD/svg10.dtd">
<svg version="1.0" xmlns="http://www.w3.org/2000/svg"
 width="125.000000pt" height="125.000000pt" viewBox="0 0 125.000000 125.000000"
 preserveAspectRatio="xMidYMid meet">
<metadata>
Created by potrace 1.14, written by Peter Selinger 2001-2017
</metadata>
<g transform="translate(0.000000,125.000000) scale(0.100000,-0.100000)"
fill="#000000" stroke="none">
<path d="M523 998 c-6 -7 -18 -33 -26 -58 -9 -25 -30 -83 -47 -130 -65 -175
-101 -276 -116 -320 -9 -25 -30 -78 -47 -119 -29 -71 -29 -75 -12 -87 27 -20
159 -19 179 2 9 8 16 20 16 25 0 5 9 28 20 52 l20 42 115 -1 c69 -1 120 -6
129 -13 7 -6 19 -32 26 -57 9 -33 20 -48 37 -55 37 -14 146 -11 167 4 18 13
18 16 -7 78 -14 35 -34 89 -45 119 -11 30 -39 107 -63 170 -23 63 -56 156 -75
207 -57 160 -43 148 -160 151 -73 2 -104 -1 -111 -10z m144 -330 c16 -51 28
-96 26 -100 -6 -11 -120 -10 -127 0 -6 10 54 192 64 192 4 0 21 -42 37 -92z"/>
</g>
</svg>
