<svg xmlns="http://www.w3.org/2000/svg" width="21.003" height="10.01" viewBox="0 0 21.003 10.01">
  <path id="carousel-nav-arrow" d="M1773.567,209.686l-4.231-3.924a1.18,1.18,0,0,1-.136-.154,1.016,1.016,0,0,1-.205-.609v-.005a1.036,1.036,0,0,1,.341-.764l4.231-3.921a1.223,1.223,0,0,1,1.649,0,1.022,1.022,0,0,1,.341.76,1.036,1.036,0,0,1-.341.766l-2.239,2.077h15.857a1.086,1.086,0,1,1,0,2.166h-15.857l2.239,2.078a1.033,1.033,0,0,1,0,1.531,1.244,1.244,0,0,1-1.649,0Z" transform="translate(-1768.995 -199.988)" fill="#ccc"/>
</svg>
