<svg xmlns="http://www.w3.org/2000/svg" xmlns:xlink="http://www.w3.org/1999/xlink" width="855.027" height="400.399"><defs><linearGradient id="a" x1=".25" y1=".933" x2=".75" y2=".067" gradientUnits="objectBoundingBox"><stop offset="0" stop-color="#fffafb"/><stop offset=".792" stop-color="#edaecb"/></linearGradient><linearGradient id="h" x1=".75" y1=".067" x2=".25" y2=".933" xlink:href="#a"/><linearGradient id="p" x1=".25" y1=".933" x2=".75" y2=".067" gradientUnits="objectBoundingBox"><stop offset="0" stop-color="#fffafb"/><stop offset=".792" stop-color="#edadcb"/></linearGradient><linearGradient id="ai" x1=".25" y1=".933" x2=".75" y2=".067" gradientUnits="objectBoundingBox"><stop offset="0" stop-color="#fffafb"/><stop offset=".792" stop-color="#eeadcb"/></linearGradient><linearGradient id="ap" x1=".75" y1=".067" x2=".25" y2=".933" xlink:href="#ai"/><linearGradient id="as" x1=".25" y1=".933" x2=".75" y2=".067" gradientUnits="objectBoundingBox"><stop offset="0" stop-color="#fffafb"/><stop offset=".792" stop-color="#eeaccb"/></linearGradient><linearGradient id="au" x1=".75" y1=".067" x2=".25" y2=".933" xlink:href="#as"/><linearGradient id="bu" x1=".25" y1=".933" x2=".75" y2=".067" gradientUnits="objectBoundingBox"><stop offset="0" stop-color="#fffafb"/><stop offset=".792" stop-color="#eeabcb"/></linearGradient><linearGradient id="bz" x1=".75" y1=".067" x2=".25" y2=".933" xlink:href="#bu"/><linearGradient id="cx" x1=".25" y1=".933" x2=".75" y2=".067" gradientUnits="objectBoundingBox"><stop offset="0" stop-color="#fffafb"/><stop offset=".792" stop-color="#efaacb"/></linearGradient><linearGradient id="dd" x1=".75" y1=".067" x2=".25" y2=".933" xlink:href="#cx"/><linearGradient id="ea" x1=".25" y1=".933" x2=".75" y2=".067" gradientUnits="objectBoundingBox"><stop offset="0" stop-color="#fffafb"/><stop offset=".792" stop-color="#efa9cb"/></linearGradient><linearGradient id="eo" x1=".75" y1=".067" x2=".25" y2=".933" xlink:href="#ea"/><linearGradient id="fc" x1=".25" y1=".933" x2=".75" y2=".067" gradientUnits="objectBoundingBox"><stop offset="0" stop-color="#fffafb"/><stop offset=".792" stop-color="#efa8cb"/></linearGradient><linearGradient id="fk" x1=".75" y1=".067" x2=".25" y2=".933" xlink:href="#fc"/><linearGradient id="fm" x1=".75" y1=".067" x2=".25" y2=".933" gradientUnits="objectBoundingBox"><stop offset="0" stop-color="#fffafb"/><stop offset=".792" stop-color="#f0a8cb"/></linearGradient><linearGradient id="fo" x1=".25" y1=".933" x2=".75" y2=".067" xlink:href="#fm"/><linearGradient id="gf" x1=".25" y1=".933" x2=".75" y2=".067" gradientUnits="objectBoundingBox"><stop offset="0" stop-color="#fffafb"/><stop offset=".792" stop-color="#f0a7cb"/></linearGradient><linearGradient id="gi" x1=".75" y1=".067" x2=".25" y2=".933" xlink:href="#gf"/><style>.a{fill:url(#a)}.b{fill:url(#h)}.c{fill:url(#p)}.d{fill:url(#ai)}.f{fill:url(#as)}.g{fill:url(#au)}.h{fill:url(#bu)}.i{fill:url(#bz)}.j{fill:url(#cx)}.k{fill:url(#dd)}.l{fill:url(#ea)}.m{fill:url(#eo)}.n{fill:url(#fc)}.p{fill:url(#fm)}.q{fill:url(#fo)}.r{fill:url(#gf)}.s{fill:url(#gi)}</style></defs><g transform="rotate(180 586.388 -99.37)"><ellipse class="a" cx="42.815" cy="42.936" rx="42.815" ry="42.936" transform="translate(1087.144 -313.271)"/><ellipse class="a" cx="42.815" cy="42.936" rx="42.815" ry="42.936" transform="translate(1080.759 -311.592)"/><ellipse class="a" cx="42.815" cy="42.936" rx="42.815" ry="42.936" transform="translate(1074.437 -310.057)"/><ellipse class="a" cx="42.819" cy="42.933" rx="42.819" ry="42.933" transform="rotate(9.25 2461.63 6442.314) skewX(.06)"/><ellipse class="a" cx="42.815" cy="42.936" rx="42.815" ry="42.936" transform="translate(1061.982 -307.408)"/><ellipse class="a" cx="42.819" cy="42.933" rx="42.819" ry="42.933" transform="rotate(9.25 2441.026 6367.868) skewX(.06)"/><ellipse class="a" cx="42.815" cy="42.936" rx="42.815" ry="42.936" transform="translate(1049.782 -305.316)"/><ellipse class="b" cx="42.815" cy="42.936" rx="42.815" ry="42.936" transform="rotate(-112.892 463.753 -455.533)"/><ellipse class="a" cx="42.815" cy="42.936" rx="42.815" ry="42.936" transform="translate(1037.838 -303.769)"/><ellipse class="a" cx="42.815" cy="42.936" rx="42.815" ry="42.936" transform="translate(1031.963 -303.197)"/><ellipse class="a" cx="42.815" cy="42.936" rx="42.815" ry="42.936" transform="translate(1026.151 -302.758)"/><ellipse class="a" cx="42.819" cy="42.933" rx="42.819" ry="42.933" transform="rotate(9.25 2400.017 6152.363) skewX(.06)"/><ellipse class="b" cx="42.815" cy="42.936" rx="42.815" ry="42.936" transform="rotate(-112.892 449.955 -444.797)"/><ellipse class="b" cx="42.815" cy="42.936" rx="42.815" ry="42.936" transform="rotate(-135 484.8 -317.23)"/><ellipse class="a" cx="42.82" cy="42.932" rx="42.82" ry="42.932" transform="matrix(.982 .191 -.19 .982 1012.5 -309.702)"/><ellipse class="c" cx="42.815" cy="42.936" rx="42.815" ry="42.936" transform="translate(998.068 -302.512)"/><ellipse class="c" cx="42.815" cy="42.936" rx="42.815" ry="42.936" transform="translate(992.646 -302.843)"/><ellipse class="c" cx="42.815" cy="42.936" rx="42.815" ry="42.936" transform="translate(987.291 -303.299)"/><ellipse class="c" cx="42.815" cy="42.936" rx="42.815" ry="42.936" transform="translate(982.001 -303.877)"/><ellipse class="c" cx="42.815" cy="42.936" rx="42.815" ry="42.936" transform="translate(976.778 -304.578)"/><ellipse class="c" cx="42.815" cy="42.936" rx="42.815" ry="42.936" transform="translate(971.62 -305.398)"/><ellipse class="c" cx="42.819" cy="42.933" rx="42.819" ry="42.933" transform="rotate(9.25 2397.34 5820.01) skewX(.06)"/><ellipse class="c" cx="42.815" cy="42.936" rx="42.815" ry="42.936" transform="translate(961.504 -307.395)"/><ellipse class="c" cx="42.815" cy="42.936" rx="42.815" ry="42.936" transform="translate(956.546 -308.568)"/><ellipse class="c" cx="42.815" cy="42.936" rx="42.815" ry="42.936" transform="translate(951.654 -309.858)"/><ellipse class="c" cx="42.815" cy="42.936" rx="42.815" ry="42.936" transform="translate(946.829 -311.261)"/><ellipse class="c" cx="42.818" cy="42.933" rx="42.818" ry="42.933" transform="rotate(8.88 2535.37 5965.75) skewX(.06)"/><ellipse class="c" cx="42.815" cy="42.936" rx="42.815" ry="42.936" transform="translate(937.382 -314.405)"/><ellipse class="c" cx="42.815" cy="42.936" rx="42.815" ry="42.936" transform="translate(932.759 -316.144)"/><ellipse class="c" cx="42.815" cy="42.936" rx="42.815" ry="42.936" transform="translate(928.204 -317.991)"/><ellipse class="c" cx="42.815" cy="42.936" rx="42.815" ry="42.936" transform="translate(923.717 -319.946)"/><ellipse class="c" cx="42.815" cy="42.936" rx="42.815" ry="42.936" transform="translate(919.297 -322.008)"/><ellipse class="c" cx="42.82" cy="42.931" rx="42.82" ry="42.931" transform="rotate(11.76 2060.166 4299.242) skewX(.06)"/><ellipse class="c" cx="42.819" cy="42.933" rx="42.819" ry="42.933" transform="rotate(9.25 2493.186 5467.467) skewX(.06)"/><ellipse class="d" cx="42.823" cy="42.929" rx="42.823" ry="42.929" transform="rotate(14.07 1820.36 3539.197) skewX(.06)"/><ellipse class="d" cx="42.815" cy="42.936" rx="42.815" ry="42.936" transform="translate(902.302 -331.298)"/><ellipse class="d" cx="42.815" cy="42.936" rx="42.815" ry="42.936" transform="translate(898.225 -333.875)"/><ellipse class="d" cx="42.815" cy="42.936" rx="42.815" ry="42.936" transform="translate(894.217 -336.55)"/><ellipse class="d" cx="42.815" cy="42.936" rx="42.815" ry="42.936" transform="translate(890.278 -339.324)"/><ellipse class="d" cx="42.815" cy="42.936" rx="42.815" ry="42.936" transform="translate(886.408 -342.195)"/><ellipse class="d" cx="42.815" cy="42.936" rx="42.815" ry="42.936" transform="translate(882.607 -345.161)"/><ellipse cx="42.815" cy="42.936" rx="42.815" ry="42.936" transform="rotate(-112.892 366.795 -422.72)" fill="url(#ap)"/><ellipse class="d" cx="42.815" cy="42.936" rx="42.815" ry="42.936" transform="translate(875.215 -351.374)"/><ellipse class="d" cx="42.815" cy="42.936" rx="42.815" ry="42.936" transform="translate(871.624 -354.619)"/><ellipse class="f" cx="42.822" cy="42.929" rx="42.822" ry="42.929" transform="rotate(14.07 1918.844 3369.794) skewX(.11)"/><ellipse class="f" cx="42.815" cy="42.936" rx="42.815" ry="42.936" transform="translate(864.652 -361.379)"/><ellipse class="g" cx="42.815" cy="42.936" rx="42.815" ry="42.936" transform="rotate(-135 397.905 -317.945)"/><ellipse class="f" cx="42.815" cy="42.936" rx="42.815" ry="42.936" transform="translate(857.962 -368.491)"/><ellipse class="f" cx="42.815" cy="42.936" rx="42.815" ry="42.936" transform="translate(854.723 -372.176)"/><ellipse class="f" cx="42.815" cy="42.936" rx="42.815" ry="42.936" transform="translate(851.555 -375.945)"/><ellipse class="f" cx="42.822" cy="42.93" rx="42.822" ry="42.93" transform="rotate(13.59 2081.098 3439.1) skewX(.07)"/><ellipse class="f" cx="42.815" cy="42.936" rx="42.815" ry="42.936" transform="translate(845.433 -383.732)"/><ellipse class="g" cx="42.815" cy="42.936" rx="42.815" ry="42.936" transform="rotate(-112.892 335.488 -430.413)"/><ellipse class="g" cx="42.815" cy="42.936" rx="42.815" ry="42.936" transform="rotate(-112.9 332.768 -431.497)"/><ellipse class="g" cx="42.815" cy="42.936" rx="42.815" ry="42.936" transform="rotate(-112.892 329.9 -432.658)"/><ellipse class="f" cx="42.819" cy="42.933" rx="42.819" ry="42.933" transform="rotate(9.25 2908.203 4961.218) skewX(.06)"/><ellipse class="g" cx="42.815" cy="42.936" rx="42.815" ry="42.936" transform="rotate(-112.9 324.432 -435.146)"/><ellipse class="f" cx="42.815" cy="42.936" rx="42.815" ry="42.936" transform="translate(828.784 -408.985)"/><ellipse class="f" cx="42.815" cy="42.936" rx="42.815" ry="42.936" transform="translate(826.262 -413.457)"/><ellipse class="g" cx="42.815" cy="42.936" rx="42.815" ry="42.936" transform="rotate(-142.281 383.354 -306.816)"/><ellipse class="f" cx="42.818" cy="42.934" rx="42.818" ry="42.934" transform="rotate(8.5 3268.459 5317.49) skewX(.06)"/><ellipse class="f" cx="42.815" cy="42.936" rx="42.815" ry="42.936" transform="translate(819.132 -427.299)"/><ellipse class="f" cx="42.819" cy="42.933" rx="42.819" ry="42.933" transform="rotate(9.25 3094.737 4840.416) skewX(.06)"/><ellipse class="f" cx="42.815" cy="42.936" rx="42.815" ry="42.936" transform="translate(814.744 -436.869)"/><ellipse class="f" cx="42.815" cy="42.936" rx="42.815" ry="42.936" transform="translate(812.659 -441.754)"/><ellipse class="g" cx="42.815" cy="42.936" rx="42.815" ry="42.936" transform="rotate(-112.892 300.023 -449.336)"/><ellipse class="f" cx="42.815" cy="42.936" rx="42.815" ry="42.936" transform="translate(808.712 -451.714)"/><ellipse class="f" cx="42.815" cy="42.936" rx="42.815" ry="42.936" transform="translate(806.849 -456.788)"/><ellipse class="f" cx="42.815" cy="42.936" rx="42.815" ry="42.936" transform="translate(805.061 -461.922)"/><ellipse class="f" cx="42.815" cy="42.936" rx="42.815" ry="42.936" transform="translate(803.346 -467.116)"/><ellipse class="f" cx="42.815" cy="42.936" rx="42.815" ry="42.936" transform="translate(801.706 -472.368)"/><ellipse class="g" cx="42.815" cy="42.936" rx="42.815" ry="42.936" transform="rotate(-112.892 283.713 -461.914)"/><ellipse class="h" cx="42.819" cy="42.933" rx="42.819" ry="42.933" transform="rotate(9.25 3416.247 4693.462) skewX(.06)"/><ellipse class="h" cx="42.815" cy="42.936" rx="42.815" ry="42.936" transform="translate(794.868 -492.607)"/><ellipse class="h" cx="42.815" cy="42.936" rx="42.815" ry="42.936" transform="translate(792.369 -498.887)"/><ellipse class="h" cx="42.815" cy="42.936" rx="42.815" ry="42.936" transform="translate(789.778 -504.887)"/><ellipse class="h" cx="42.815" cy="42.936" rx="42.815" ry="42.936" transform="translate(787.097 -510.611)"/><ellipse class="i" cx="42.815" cy="42.936" rx="42.815" ry="42.936" transform="rotate(-112.892 263.862 -475.286)"/><ellipse class="h" cx="42.819" cy="42.933" rx="42.819" ry="42.933" transform="rotate(9.25 3624.323 4579.252) skewX(.06)"/><ellipse class="i" cx="42.815" cy="42.936" rx="42.815" ry="42.936" transform="rotate(-112.892 257.623 -478.412)"/><ellipse class="h" cx="42.815" cy="42.936" rx="42.815" ry="42.936" transform="translate(775.527 -530.793)"/><ellipse class="i" cx="42.815" cy="42.936" rx="42.815" ry="42.936" transform="rotate(-135 318.219 -384.688)"/><ellipse class="h" cx="42.815" cy="42.936" rx="42.815" ry="42.936" transform="translate(769.265 -539.297)"/><ellipse class="h" cx="42.815" cy="42.936" rx="42.815" ry="42.936" transform="translate(766.023 -543.161)"/><ellipse class="i" cx="42.815" cy="42.936" rx="42.815" ry="42.936" transform="rotate(-112.892 242.868 -483.472)"/><ellipse class="h" cx="42.815" cy="42.936" rx="42.815" ry="42.936" transform="translate(759.327 -550.129)"/><ellipse class="h" cx="42.815" cy="42.936" rx="42.815" ry="42.936" transform="translate(755.879 -553.239)"/><ellipse class="h" cx="42.822" cy="42.93" rx="42.822" ry="42.93" transform="rotate(13.59 2778.141 2942.923) skewX(.07)"/><ellipse class="i" cx="42.815" cy="42.936" rx="42.815" ry="42.936" transform="rotate(-119.54 254.453 -454.684)"/><ellipse class="i" cx="42.815" cy="42.936" rx="42.815" ry="42.936" transform="rotate(-135 299.211 -392.001)"/><ellipse class="h" cx="42.815" cy="42.936" rx="42.815" ry="42.936" transform="translate(741.465 -563.242)"/><ellipse class="h" cx="42.821" cy="42.93" rx="42.821" ry="42.93" transform="rotate(12.84 2955.222 3064.911) skewX(.07)"/><ellipse class="h" cx="42.815" cy="42.936" rx="42.815" ry="42.936" transform="translate(733.918 -566.822)"/><ellipse class="h" cx="42.815" cy="42.936" rx="42.815" ry="42.936" transform="translate(730.067 -568.266)"/><ellipse class="i" cx="42.815" cy="42.936" rx="42.815" ry="42.936" transform="rotate(-112.892 217.066 -482.71)"/><ellipse class="h" cx="42.815" cy="42.936" rx="42.815" ry="42.936" transform="translate(722.224 -570.477)"/><ellipse class="h" cx="42.815" cy="42.936" rx="42.815" ry="42.936" transform="translate(718.235 -571.249)"/><ellipse class="h" cx="42.815" cy="42.936" rx="42.815" ry="42.936" transform="translate(714.205 -571.803)"/><ellipse class="i" cx="42.815" cy="42.936" rx="42.815" ry="42.936" transform="rotate(-109.63 196.175 -493.538)"/><ellipse class="i" cx="42.815" cy="42.936" rx="42.815" ry="42.936" transform="rotate(-109.64 194.152 -492.134)"/><ellipse class="h" cx="42.815" cy="42.936" rx="42.815" ry="42.936" transform="translate(701.89 -572.181)"/><ellipse class="j" cx="42.815" cy="42.936" rx="42.815" ry="42.936" transform="translate(697.717 -571.889)"/><ellipse class="j" cx="42.815" cy="42.936" rx="42.815" ry="42.936" transform="translate(693.514 -571.392)"/><ellipse class="j" cx="42.815" cy="42.936" rx="42.815" ry="42.936" transform="translate(689.283 -570.693)"/><ellipse class="j" cx="42.815" cy="42.936" rx="42.815" ry="42.936" transform="translate(685.027 -569.795)"/><ellipse class="j" cx="42.815" cy="42.936" rx="42.815" ry="42.936" transform="translate(680.748 -568.701)"/><ellipse class="j" cx="42.815" cy="42.936" rx="42.815" ry="42.936" transform="translate(676.448 -567.414)"/><ellipse class="k" cx="42.815" cy="42.936" rx="42.815" ry="42.936" transform="rotate(-112.892 191.223 -463.016)"/><ellipse class="j" cx="42.819" cy="42.932" rx="42.819" ry="42.932" transform="matrix(.984 .181 -.18 .984 676.213 -571.305)"/><ellipse class="j" cx="42.815" cy="42.936" rx="42.815" ry="42.936" transform="translate(663.445 -562.417)"/><ellipse class="j" cx="42.815" cy="42.936" rx="42.815" ry="42.936" transform="translate(659.085 -560.383)"/><ellipse class="j" cx="42.818" cy="42.933" rx="42.818" ry="42.933" transform="rotate(8.88 3920.653 3941.328) skewX(.06)"/><ellipse class="j" cx="42.815" cy="42.936" rx="42.815" ry="42.936" transform="translate(650.337 -555.779)"/><ellipse class="j" cx="42.822" cy="42.93" rx="42.822" ry="42.93" transform="rotate(13.1 2756.883 2566.316) skewX(.06)"/><ellipse class="j" cx="42.815" cy="42.936" rx="42.815" ry="42.936" transform="translate(641.569 -550.478)"/><ellipse class="j" cx="42.815" cy="42.936" rx="42.815" ry="42.936" transform="translate(637.184 -547.574)"/><ellipse class="j" cx="42.815" cy="42.936" rx="42.815" ry="42.936" transform="translate(632.8 -544.503)"/><ellipse class="j" cx="42.815" cy="42.936" rx="42.815" ry="42.936" transform="translate(628.421 -541.27)"/><ellipse class="j" cx="42.815" cy="42.936" rx="42.815" ry="42.936" transform="translate(624.048 -537.876)"/><ellipse class="j" cx="42.819" cy="42.933" rx="42.819" ry="42.933" transform="rotate(9.25 3624.958 3580.479) skewX(.06)"/><ellipse class="j" cx="42.815" cy="42.936" rx="42.815" ry="42.936" transform="translate(615.332 -530.619)"/><ellipse class="j" cx="42.815" cy="42.936" rx="42.815" ry="42.936" transform="translate(610.992 -526.761)"/><ellipse class="j" cx="42.815" cy="42.936" rx="42.815" ry="42.936" transform="translate(606.668 -522.754)"/><ellipse class="j" cx="42.815" cy="42.936" rx="42.815" ry="42.936" transform="translate(602.362 -518.601)"/><ellipse class="j" cx="42.815" cy="42.936" rx="42.815" ry="42.936" transform="translate(598.076 -514.304)"/><ellipse class="j" cx="42.815" cy="42.936" rx="42.815" ry="42.936" transform="translate(593.813 -509.866)"/><ellipse class="j" cx="42.815" cy="42.936" rx="42.815" ry="42.936" transform="translate(589.574 -505.29)"/><ellipse class="j" cx="42.815" cy="42.936" rx="42.815" ry="42.936" transform="translate(585.363 -500.578)"/><ellipse class="k" cx="42.815" cy="42.936" rx="42.815" ry="42.936" transform="rotate(-112.892 169.028 -397.755)"/><ellipse class="j" cx="42.815" cy="42.936" rx="42.815" ry="42.936" transform="translate(577.03 -490.761)"/><ellipse class="l" cx="42.815" cy="42.936" rx="42.815" ry="42.936" transform="translate(572.913 -485.66)"/><ellipse class="l" cx="42.815" cy="42.936" rx="42.815" ry="42.936" transform="translate(568.832 -480.435)"/><ellipse class="l" cx="42.822" cy="42.93" rx="42.822" ry="42.93" transform="rotate(13.1 2378.55 2253.477) skewX(.06)"/><ellipse class="l" cx="42.815" cy="42.936" rx="42.815" ry="42.936" transform="translate(561.059 -470.108)"/><ellipse class="l" cx="42.819" cy="42.933" rx="42.819" ry="42.933" transform="rotate(9.25 3172.432 3232.225) skewX(.06)"/><ellipse class="l" cx="42.815" cy="42.936" rx="42.815" ry="42.936" transform="translate(553.594 -461.191)"/><ellipse class="l" cx="42.819" cy="42.933" rx="42.819" ry="42.933" transform="rotate(9.25 3116.552 3189.258) skewX(.06)"/><ellipse class="l" cx="42.815" cy="42.936" rx="42.815" ry="42.936" transform="translate(545.697 -453.118)"/><ellipse class="l" cx="42.815" cy="42.936" rx="42.815" ry="42.936" transform="translate(541.6 -449.393)"/><ellipse class="l" cx="42.822" cy="42.93" rx="42.822" ry="42.93" transform="rotate(13.1 2238.554 2149.362) skewX(.06)"/><ellipse class="l" cx="42.815" cy="42.936" rx="42.815" ry="42.936" transform="translate(533.139 -442.565)"/><ellipse class="l" cx="42.815" cy="42.936" rx="42.815" ry="42.936" transform="translate(528.787 -439.459)"/><ellipse class="l" cx="42.815" cy="42.936" rx="42.815" ry="42.936" transform="translate(524.36 -436.555)"/><ellipse class="l" cx="42.815" cy="42.936" rx="42.815" ry="42.936" transform="translate(519.865 -433.854)"/><ellipse class="m" cx="42.815" cy="42.936" rx="42.815" ry="42.936" transform="rotate(-112.892 157.442 -343.72)"/><ellipse class="l" cx="42.815" cy="42.936" rx="42.815" ry="42.936" transform="translate(510.694 -429.053)"/><ellipse class="l" cx="42.815" cy="42.936" rx="42.815" ry="42.936" transform="translate(506.029 -426.951)"/><ellipse class="l" cx="42.815" cy="42.936" rx="42.815" ry="42.936" transform="translate(501.318 -425.046)"/><ellipse class="l" cx="42.815" cy="42.936" rx="42.815" ry="42.936" transform="translate(496.568 -423.337)"/><ellipse class="m" cx="42.815" cy="42.936" rx="42.815" ry="42.936" transform="rotate(-110.43 142.246 -338.895)"/><ellipse class="l" cx="42.815" cy="42.936" rx="42.815" ry="42.936" transform="translate(486.972 -420.503)"/><ellipse class="l" cx="42.815" cy="42.936" rx="42.815" ry="42.936" transform="translate(482.137 -419.375)"/><ellipse class="l" cx="42.819" cy="42.933" rx="42.819" ry="42.933" transform="rotate(9.25 2844.091 2764.135) skewX(.06)"/><ellipse class="l" cx="42.815" cy="42.936" rx="42.815" ry="42.936" transform="translate(472.422 -417.691)"/><ellipse class="m" cx="42.815" cy="42.936" rx="42.815" ry="42.936" transform="rotate(-135 190.227 -262.524)"/><ellipse class="l" cx="42.815" cy="42.936" rx="42.815" ry="42.936" transform="translate(462.686 -416.762)"/><ellipse class="l" cx="42.815" cy="42.936" rx="42.815" ry="42.936" transform="translate(457.824 -416.578)"/><ellipse class="l" cx="42.815" cy="42.936" rx="42.815" ry="42.936" transform="translate(452.974 -416.578)"/><ellipse class="n" cx="42.815" cy="42.936" rx="42.815" ry="42.936" transform="translate(448.142 -416.763)"/><ellipse class="n" cx="42.815" cy="42.936" rx="42.815" ry="42.936" transform="translate(443.332 -417.13)"/><ellipse class="n" cx="42.815" cy="42.936" rx="42.815" ry="42.936" transform="translate(438.551 -417.678)"/><ellipse class="n" cx="42.815" cy="42.936" rx="42.815" ry="42.936" transform="translate(433.805 -418.407)"/><ellipse class="n" cx="42.819" cy="42.933" rx="42.819" ry="42.933" transform="rotate(9.94 2645.864 2284.425) skewX(.06)"/><ellipse class="n" cx="42.815" cy="42.936" rx="42.815" ry="42.936" transform="translate(424.44 -420.401)"/><ellipse class="n" cx="42.815" cy="42.936" rx="42.815" ry="42.936" transform="translate(419.832 -421.663)"/><ellipse class="n" cx="42.815" cy="42.936" rx="42.815" ry="42.936" transform="translate(415.281 -423.1)"/><ellipse cx="42.815" cy="42.936" rx="42.815" ry="42.936" transform="rotate(-112.892 107.388 -305.74)" fill="url(#fk)"/><ellipse class="n" cx="42.815" cy="42.936" rx="42.815" ry="42.936" transform="translate(406.375 -426.496)"/><ellipse class="p" cx="42.815" cy="42.936" rx="42.815" ry="42.936" transform="rotate(-135 155.12 -254.614)"/><ellipse class="p" cx="42.815" cy="42.936" rx="42.815" ry="42.936" transform="rotate(-112.892 98.929 -304.354)"/><ellipse class="q" cx="42.815" cy="42.936" rx="42.815" ry="42.936" transform="translate(393.589 -432.875)"/><ellipse class="q" cx="42.822" cy="42.93" rx="42.822" ry="42.93" transform="rotate(13.1 2119.905 1514.164) skewX(.06)"/><ellipse class="q" cx="42.818" cy="42.933" rx="42.818" ry="42.933" transform="rotate(8.88 3042.934 2297.56) skewX(.06)"/><ellipse class="p" cx="42.815" cy="42.936" rx="42.815" ry="42.936" transform="rotate(-135 142.369 -256.545)"/><ellipse class="q" cx="42.819" cy="42.933" rx="42.819" ry="42.933" transform="rotate(9.25 2950.257 2141.819) skewX(.06)"/><ellipse class="q" cx="42.823" cy="42.928" rx="42.823" ry="42.928" transform="matrix(.967 .254 -.253 .967 386.448 -456.337)"/><ellipse class="q" cx="42.815" cy="42.936" rx="42.815" ry="42.936" transform="translate(370.646 -450.137)"/><ellipse class="q" cx="42.815" cy="42.936" rx="42.815" ry="42.936" transform="translate(367.229 -453.583)"/><ellipse class="p" cx="42.815" cy="42.936" rx="42.815" ry="42.936" transform="rotate(-135 130.126 -261.094)"/><ellipse class="q" cx="42.822" cy="42.929" rx="42.822" ry="42.929" transform="rotate(13.59 2157.291 1326.123) skewX(.06)"/><ellipse class="q" cx="42.815" cy="42.936" rx="42.815" ry="42.936" transform="translate(357.792 -464.875)"/><ellipse class="q" cx="42.819" cy="42.933" rx="42.819" ry="42.933" transform="rotate(9.94 2927.327 1854.68) skewX(.06)"/><ellipse class="q" cx="42.815" cy="42.936" rx="42.815" ry="42.936" transform="translate(352.236 -473.184)"/><ellipse class="q" cx="42.815" cy="42.936" rx="42.815" ry="42.936" transform="translate(349.695 -477.57)"/><ellipse class="q" cx="42.815" cy="42.936" rx="42.815" ry="42.936" transform="translate(347.319 -482.107)"/><ellipse class="q" cx="42.815" cy="42.936" rx="42.815" ry="42.936" transform="translate(345.116 -486.796)"/><ellipse class="q" cx="42.819" cy="42.933" rx="42.819" ry="42.933" transform="rotate(9.25 3226.985 1905.044) skewX(.06)"/><ellipse class="r" cx="42.815" cy="42.936" rx="42.815" ry="42.936" transform="translate(341.247 -496.621)"/><ellipse class="r" cx="42.822" cy="42.93" rx="42.822" ry="42.93" transform="rotate(13.1 2382.821 1265.28) skewX(.06)"/><ellipse class="r" cx="42.822" cy="42.93" rx="42.822" ry="42.93" transform="rotate(13.59 2359.952 1215.35) skewX(.07)"/><ellipse class="s" cx="42.815" cy="42.936" rx="42.815" ry="42.936" transform="rotate(-135 105.143 -283.123)"/><ellipse class="r" cx="42.815" cy="42.936" rx="42.815" ry="42.936" transform="translate(335.818 -518.03)"/><ellipse class="r" cx="42.822" cy="42.93" rx="42.822" ry="42.93" transform="rotate(13.1 2475.734 1234.438) skewX(.06)"/><ellipse class="r" cx="42.815" cy="42.936" rx="42.815" ry="42.936" transform="translate(334.351 -529.594)"/><ellipse class="r" cx="42.815" cy="42.936" rx="42.815" ry="42.936" transform="translate(333.949 -535.586)"/><ellipse class="s" cx="42.815" cy="42.936" rx="42.815" ry="42.936" transform="rotate(-112.892 30.077 -338.702)"/><ellipse class="r" cx="42.819" cy="42.933" rx="42.819" ry="42.933" transform="rotate(9.25 3568.057 1820.551) skewX(.06)"/><ellipse class="r" cx="42.822" cy="42.929" rx="42.822" ry="42.929" transform="matrix(.971 .241 -.24 .971 345.688 -563.456)"/><ellipse class="r" cx="42.815" cy="42.936" rx="42.815" ry="42.936" transform="translate(334.684 -560.933)"/><ellipse class="s" cx="42.815" cy="42.936" rx="42.815" ry="42.936" transform="rotate(-135 93.026 -310.409)"/><ellipse class="r" cx="42.815" cy="42.936" rx="42.815" ry="42.936" transform="translate(336.538 -574.415)"/><ellipse class="s" cx="42.815" cy="42.936" rx="42.815" ry="42.936" transform="rotate(-135 91.367 -317.773)"/></g></svg>