<svg xmlns="http://www.w3.org/2000/svg" xmlns:xlink="http://www.w3.org/1999/xlink" width="855.027" height="400.399" viewBox="0 0 855.027 400.399"><defs><style>.a{fill:url(#a);}.b{fill:url(#h);}.c{fill:url(#p);}.d{fill:url(#ai);}.e{fill:url(#ap);}.f{fill:url(#as);}.g{fill:url(#au);}.h{fill:url(#bu);}.i{fill:url(#bz);}.j{fill:url(#cx);}.k{fill:url(#dd);}.l{fill:url(#ea);}.m{fill:url(#eo);}.n{fill:url(#fc);}.o{fill:url(#fk);}.p{fill:url(#fm);}.q{fill:url(#fo);}.r{fill:url(#gf);}.s{fill:url(#gi);}</style><linearGradient id="a" x1="0.25" y1="0.933" x2="0.75" y2="0.067" gradientUnits="objectBoundingBox"><stop offset="0" stop-color="#fffafb"/><stop offset="0.792" stop-color="#edaecb"/></linearGradient><linearGradient id="h" x1="0.75" y1="0.067" x2="0.25" y2="0.933" xlink:href="#a"/><linearGradient id="p" x1="0.25" y1="0.933" x2="0.75" y2="0.067" gradientUnits="objectBoundingBox"><stop offset="0" stop-color="#fffafb"/><stop offset="0.792" stop-color="#edadcb"/></linearGradient><linearGradient id="ai" x1="0.25" y1="0.933" x2="0.75" y2="0.067" gradientUnits="objectBoundingBox"><stop offset="0" stop-color="#fffafb"/><stop offset="0.792" stop-color="#eeadcb"/></linearGradient><linearGradient id="ap" x1="0.75" y1="0.067" x2="0.25" y2="0.933" xlink:href="#ai"/><linearGradient id="as" x1="0.25" y1="0.933" x2="0.75" y2="0.067" gradientUnits="objectBoundingBox"><stop offset="0" stop-color="#fffafb"/><stop offset="0.792" stop-color="#eeaccb"/></linearGradient><linearGradient id="au" x1="0.75" y1="0.067" x2="0.25" y2="0.933" xlink:href="#as"/><linearGradient id="bu" x1="0.25" y1="0.933" x2="0.75" y2="0.067" gradientUnits="objectBoundingBox"><stop offset="0" stop-color="#fffafb"/><stop offset="0.792" stop-color="#eeabcb"/></linearGradient><linearGradient id="bz" x1="0.75" y1="0.067" x2="0.25" y2="0.933" xlink:href="#bu"/><linearGradient id="cx" x1="0.25" y1="0.933" x2="0.75" y2="0.067" gradientUnits="objectBoundingBox"><stop offset="0" stop-color="#fffafb"/><stop offset="0.792" stop-color="#efaacb"/></linearGradient><linearGradient id="dd" x1="0.75" y1="0.067" x2="0.25" y2="0.933" xlink:href="#cx"/><linearGradient id="ea" x1="0.25" y1="0.933" x2="0.75" y2="0.067" gradientUnits="objectBoundingBox"><stop offset="0" stop-color="#fffafb"/><stop offset="0.792" stop-color="#efa9cb"/></linearGradient><linearGradient id="eo" x1="0.75" y1="0.067" x2="0.25" y2="0.933" xlink:href="#ea"/><linearGradient id="fc" x1="0.25" y1="0.933" x2="0.75" y2="0.067" gradientUnits="objectBoundingBox"><stop offset="0" stop-color="#fffafb"/><stop offset="0.792" stop-color="#efa8cb"/></linearGradient><linearGradient id="fk" x1="0.75" y1="0.067" x2="0.25" y2="0.933" xlink:href="#fc"/><linearGradient id="fm" x1="0.75" y1="0.067" x2="0.25" y2="0.933" gradientUnits="objectBoundingBox"><stop offset="0" stop-color="#fffafb"/><stop offset="0.792" stop-color="#f0a8cb"/></linearGradient><linearGradient id="fo" x1="0.25" y1="0.933" x2="0.75" y2="0.067" xlink:href="#fm"/><linearGradient id="gf" x1="0.25" y1="0.933" x2="0.75" y2="0.067" gradientUnits="objectBoundingBox"><stop offset="0" stop-color="#fffafb"/><stop offset="0.792" stop-color="#f0a7cb"/></linearGradient><linearGradient id="gi" x1="0.75" y1="0.067" x2="0.25" y2="0.933" xlink:href="#gf"/></defs><g transform="matrix(-1, 0, 0, -1, 1172.775, -198.74)"><ellipse class="a" cx="42.815" cy="42.936" rx="42.815" ry="42.936" transform="translate(1087.144 -313.271)"/><ellipse class="a" cx="42.815" cy="42.936" rx="42.815" ry="42.936" transform="translate(1080.759 -311.592)"/><ellipse class="a" cx="42.815" cy="42.936" rx="42.815" ry="42.936" transform="translate(1074.437 -310.057)"/><ellipse class="a" cx="42.819" cy="42.933" rx="42.819" ry="42.933" transform="matrix(0.987, 0.162, -0.161, 0.987, 1075.656, -315.034)"/><ellipse class="a" cx="42.815" cy="42.936" rx="42.815" ry="42.936" transform="translate(1061.982 -307.408)"/><ellipse class="a" cx="42.819" cy="42.933" rx="42.819" ry="42.933" transform="matrix(0.987, 0.162, -0.161, 0.987, 1063.328, -312.664)"/><ellipse class="a" cx="42.815" cy="42.936" rx="42.815" ry="42.936" transform="translate(1049.782 -305.316)"/><ellipse class="b" cx="42.815" cy="42.936" rx="42.815" ry="42.936" transform="translate(1063.806 -205.505) rotate(-112.892)"/><ellipse class="a" cx="42.815" cy="42.936" rx="42.815" ry="42.936" transform="translate(1037.838 -303.769)"/><ellipse class="a" cx="42.815" cy="42.936" rx="42.815" ry="42.936" transform="translate(1031.963 -303.197)"/><ellipse class="a" cx="42.815" cy="42.936" rx="42.815" ry="42.936" transform="translate(1026.151 -302.758)"/><ellipse class="a" cx="42.819" cy="42.933" rx="42.819" ry="42.933" transform="matrix(0.987, 0.162, -0.161, 0.987, 1027.883, -308.822)"/><ellipse class="b" cx="42.815" cy="42.936" rx="42.815" ry="42.936" transform="translate(1034.75 -203.304) rotate(-112.892)"/><ellipse class="b" cx="42.815" cy="42.936" rx="42.815" ry="42.936" transform="translate(1051.921 -198.74) rotate(-135)"/><ellipse class="a" cx="42.82" cy="42.932" rx="42.82" ry="42.932" transform="matrix(0.982, 0.191, -0.19, 0.982, 1012.5, -309.702)"/><ellipse class="c" cx="42.815" cy="42.936" rx="42.815" ry="42.936" transform="translate(998.068 -302.512)"/><ellipse class="c" cx="42.815" cy="42.936" rx="42.815" ry="42.936" transform="translate(992.646 -302.843)"/><ellipse class="c" cx="42.815" cy="42.936" rx="42.815" ry="42.936" transform="translate(987.291 -303.299)"/><ellipse class="c" cx="42.815" cy="42.936" rx="42.815" ry="42.936" transform="translate(982.001 -303.877)"/><ellipse class="c" cx="42.815" cy="42.936" rx="42.815" ry="42.936" transform="translate(976.778 -304.578)"/><ellipse class="c" cx="42.815" cy="42.936" rx="42.815" ry="42.936" transform="translate(971.62 -305.398)"/><ellipse class="c" cx="42.819" cy="42.933" rx="42.819" ry="42.933" transform="matrix(0.987, 0.162, -0.161, 0.987, 974.007, -312.709)"/><ellipse class="c" cx="42.815" cy="42.936" rx="42.815" ry="42.936" transform="translate(961.504 -307.395)"/><ellipse class="c" cx="42.815" cy="42.936" rx="42.815" ry="42.936" transform="translate(956.546 -308.568)"/><ellipse class="c" cx="42.815" cy="42.936" rx="42.815" ry="42.936" transform="translate(951.654 -309.858)"/><ellipse class="c" cx="42.815" cy="42.936" rx="42.815" ry="42.936" transform="translate(946.829 -311.261)"/><ellipse class="c" cx="42.818" cy="42.933" rx="42.818" ry="42.933" transform="matrix(0.988, 0.154, -0.153, 0.988, 949.15, -318.858)"/><ellipse class="c" cx="42.815" cy="42.936" rx="42.815" ry="42.936" transform="translate(937.382 -314.405)"/><ellipse class="c" cx="42.815" cy="42.936" rx="42.815" ry="42.936" transform="translate(932.759 -316.144)"/><ellipse class="c" cx="42.815" cy="42.936" rx="42.815" ry="42.936" transform="translate(928.204 -317.991)"/><ellipse class="c" cx="42.815" cy="42.936" rx="42.815" ry="42.936" transform="translate(923.717 -319.946)"/><ellipse class="c" cx="42.815" cy="42.936" rx="42.815" ry="42.936" transform="translate(919.297 -322.008)"/><ellipse class="c" cx="42.82" cy="42.931" rx="42.82" ry="42.931" transform="matrix(0.979, 0.205, -0.204, 0.979, 924.608, -332.05)"/><ellipse class="c" cx="42.819" cy="42.933" rx="42.819" ry="42.933" transform="matrix(0.987, 0.162, -0.161, 0.987, 918.141, -332.819)"/><ellipse class="d" cx="42.823" cy="42.929" rx="42.823" ry="42.929" transform="matrix(0.97, 0.244, -0.243, 0.97, 918.175, -337.992)"/><ellipse class="d" cx="42.815" cy="42.936" rx="42.815" ry="42.936" transform="translate(902.302 -331.298)"/><ellipse class="d" cx="42.815" cy="42.936" rx="42.815" ry="42.936" transform="translate(898.225 -333.875)"/><ellipse class="d" cx="42.815" cy="42.936" rx="42.815" ry="42.936" transform="translate(894.217 -336.55)"/><ellipse class="d" cx="42.815" cy="42.936" rx="42.815" ry="42.936" transform="translate(890.278 -339.324)"/><ellipse class="d" cx="42.815" cy="42.936" rx="42.815" ry="42.936" transform="translate(886.408 -342.195)"/><ellipse class="d" cx="42.815" cy="42.936" rx="42.815" ry="42.936" transform="translate(882.607 -345.161)"/><ellipse class="e" cx="42.815" cy="42.936" rx="42.815" ry="42.936" transform="translate(898.904 -249.251) rotate(-112.892)"/><ellipse class="d" cx="42.815" cy="42.936" rx="42.815" ry="42.936" transform="translate(875.215 -351.374)"/><ellipse class="d" cx="42.815" cy="42.936" rx="42.815" ry="42.936" transform="translate(871.624 -354.619)"/><ellipse class="f" cx="42.822" cy="42.929" rx="42.822" ry="42.929" transform="matrix(0.97, 0.244, -0.242, 0.97, 879.795, -367.104)"/><ellipse class="f" cx="42.815" cy="42.936" rx="42.815" ry="42.936" transform="translate(864.652 -361.379)"/><ellipse class="g" cx="42.815" cy="42.936" rx="42.815" ry="42.936" transform="translate(904.087 -261.405) rotate(-135)"/><ellipse class="f" cx="42.815" cy="42.936" rx="42.815" ry="42.936" transform="translate(857.962 -368.491)"/><ellipse class="f" cx="42.815" cy="42.936" rx="42.815" ry="42.936" transform="translate(854.723 -372.176)"/><ellipse class="f" cx="42.815" cy="42.936" rx="42.815" ry="42.936" transform="translate(851.555 -375.945)"/><ellipse class="f" cx="42.822" cy="42.93" rx="42.822" ry="42.93" transform="matrix(0.972, 0.233, -0.232, 0.973, 859.581, -388.601)"/><ellipse class="f" cx="42.815" cy="42.936" rx="42.815" ry="42.936" transform="translate(845.433 -383.732)"/><ellipse class="g" cx="42.815" cy="42.936" rx="42.815" ry="42.936" transform="translate(862.505 -288.776) rotate(-112.892)"/><ellipse class="g" cx="42.815" cy="42.936" rx="42.815" ry="42.936" transform="matrix(-0.389, -0.921, 0.921, -0.389, 859.623, -292.87)"/><ellipse class="g" cx="42.815" cy="42.936" rx="42.815" ry="42.936" transform="translate(856.812 -297.043) rotate(-112.892)"/><ellipse class="f" cx="42.819" cy="42.933" rx="42.819" ry="42.933" transform="matrix(0.987, 0.162, -0.161, 0.987, 841.524, -406.633)"/><ellipse class="g" cx="42.815" cy="42.936" rx="42.815" ry="42.936" transform="matrix(-0.389, -0.921, 0.921, -0.389, 851.406, -305.616)"/><ellipse class="f" cx="42.815" cy="42.936" rx="42.815" ry="42.936" transform="translate(828.784 -408.985)"/><ellipse class="f" cx="42.815" cy="42.936" rx="42.815" ry="42.936" transform="translate(826.262 -413.457)"/><ellipse class="g" cx="42.815" cy="42.936" rx="42.815" ry="42.936" transform="translate(874.302 -314.981) rotate(-142.281)"/><ellipse class="f" cx="42.818" cy="42.934" rx="42.818" ry="42.934" transform="matrix(0.989, 0.149, -0.148, 0.989, 828.259, -428.508)"/><ellipse class="f" cx="42.815" cy="42.936" rx="42.815" ry="42.936" transform="translate(819.132 -427.299)"/><ellipse class="f" cx="42.819" cy="42.933" rx="42.819" ry="42.933" transform="matrix(0.987, 0.162, -0.161, 0.987, 824.379, -438.422)"/><ellipse class="f" cx="42.815" cy="42.936" rx="42.815" ry="42.936" transform="translate(814.744 -436.869)"/><ellipse class="f" cx="42.815" cy="42.936" rx="42.815" ry="42.936" transform="translate(812.659 -441.754)"/><ellipse class="g" cx="42.815" cy="42.936" rx="42.815" ry="42.936" transform="translate(830.676 -347.732) rotate(-112.892)"/><ellipse class="f" cx="42.815" cy="42.936" rx="42.815" ry="42.936" transform="translate(808.712 -451.714)"/><ellipse class="f" cx="42.815" cy="42.936" rx="42.815" ry="42.936" transform="translate(806.849 -456.788)"/><ellipse class="f" cx="42.815" cy="42.936" rx="42.815" ry="42.936" transform="translate(805.061 -461.922)"/><ellipse class="f" cx="42.815" cy="42.936" rx="42.815" ry="42.936" transform="translate(803.346 -467.116)"/><ellipse class="f" cx="42.815" cy="42.936" rx="42.815" ry="42.936" transform="translate(801.706 -472.368)"/><ellipse class="g" cx="42.815" cy="42.936" rx="42.815" ry="42.936" transform="translate(819.61 -380.229) rotate(-112.892)"/><ellipse class="h" cx="42.819" cy="42.933" rx="42.819" ry="42.933" transform="matrix(0.987, 0.162, -0.161, 0.987, 804.752, -492.417)"/><ellipse class="h" cx="42.815" cy="42.936" rx="42.815" ry="42.936" transform="translate(794.868 -492.607)"/><ellipse class="h" cx="42.815" cy="42.936" rx="42.815" ry="42.936" transform="translate(792.369 -498.887)"/><ellipse class="h" cx="42.815" cy="42.936" rx="42.815" ry="42.936" transform="translate(789.778 -504.887)"/><ellipse class="h" cx="42.815" cy="42.936" rx="42.815" ry="42.936" transform="translate(787.097 -510.611)"/><ellipse class="i" cx="42.815" cy="42.936" rx="42.815" ry="42.936" transform="translate(804.356 -417.09) rotate(-112.892)"/><ellipse class="h" cx="42.819" cy="42.933" rx="42.819" ry="42.933" transform="matrix(0.987, 0.162, -0.161, 0.987, 788.955, -527.61)"/><ellipse class="i" cx="42.815" cy="42.936" rx="42.815" ry="42.936" transform="translate(798.569 -427.179) rotate(-112.892)"/><ellipse class="h" cx="42.815" cy="42.936" rx="42.815" ry="42.936" transform="translate(775.527 -530.793)"/><ellipse class="i" cx="42.815" cy="42.936" rx="42.815" ry="42.936" transform="translate(815.249 -431.689) rotate(-135)"/><ellipse class="h" cx="42.815" cy="42.936" rx="42.815" ry="42.936" transform="translate(769.265 -539.297)"/><ellipse class="h" cx="42.815" cy="42.936" rx="42.815" ry="42.936" transform="translate(766.023 -543.161)"/><ellipse class="i" cx="42.815" cy="42.936" rx="42.815" ry="42.936" transform="translate(782.737 -447.801) rotate(-112.892)"/><ellipse class="h" cx="42.815" cy="42.936" rx="42.815" ry="42.936" transform="translate(759.327 -550.129)"/><ellipse class="h" cx="42.815" cy="42.936" rx="42.815" ry="42.936" transform="translate(755.879 -553.239)"/><ellipse class="h" cx="42.822" cy="42.93" rx="42.822" ry="42.93" transform="matrix(0.972, 0.233, -0.232, 0.973, 763.489, -564.905)"/><ellipse class="i" cx="42.815" cy="42.936" rx="42.815" ry="42.936" transform="matrix(-0.493, -0.87, 0.87, -0.493, 775.474, -457.469)"/><ellipse class="i" cx="42.815" cy="42.936" rx="42.815" ry="42.936" transform="translate(787.972 -457.614) rotate(-135)"/><ellipse class="h" cx="42.815" cy="42.936" rx="42.815" ry="42.936" transform="translate(741.465 -563.242)"/><ellipse class="h" cx="42.821" cy="42.93" rx="42.821" ry="42.93" transform="matrix(0.975, 0.22, -0.219, 0.976, 748.161, -573.526)"/><ellipse class="h" cx="42.815" cy="42.936" rx="42.815" ry="42.936" transform="translate(733.918 -566.822)"/><ellipse class="h" cx="42.815" cy="42.936" rx="42.815" ry="42.936" transform="translate(730.067 -568.266)"/><ellipse class="i" cx="42.815" cy="42.936" rx="42.815" ry="42.936" transform="translate(746.195 -470.513) rotate(-112.892)"/><ellipse class="h" cx="42.815" cy="42.936" rx="42.815" ry="42.936" transform="translate(722.224 -570.477)"/><ellipse class="h" cx="42.815" cy="42.936" rx="42.815" ry="42.936" transform="translate(718.235 -571.249)"/><ellipse class="h" cx="42.815" cy="42.936" rx="42.815" ry="42.936" transform="translate(714.205 -571.803)"/><ellipse class="i" cx="42.815" cy="42.936" rx="42.815" ry="42.936" transform="matrix(-0.336, -0.942, 0.942, -0.336, 727.003, -474.57)"/><ellipse class="i" cx="42.815" cy="42.936" rx="42.815" ry="42.936" transform="translate(722.912 -474.688) rotate(-109.64)"/><ellipse class="h" cx="42.815" cy="42.936" rx="42.815" ry="42.936" transform="translate(701.89 -572.181)"/><ellipse class="j" cx="42.815" cy="42.936" rx="42.815" ry="42.936" transform="translate(697.717 -571.889)"/><ellipse class="j" cx="42.815" cy="42.936" rx="42.815" ry="42.936" transform="translate(693.514 -571.392)"/><ellipse class="j" cx="42.815" cy="42.936" rx="42.815" ry="42.936" transform="translate(689.283 -570.693)"/><ellipse class="j" cx="42.815" cy="42.936" rx="42.815" ry="42.936" transform="translate(685.027 -569.795)"/><ellipse class="j" cx="42.815" cy="42.936" rx="42.815" ry="42.936" transform="translate(680.748 -568.701)"/><ellipse class="j" cx="42.815" cy="42.936" rx="42.815" ry="42.936" transform="translate(676.448 -567.414)"/><ellipse class="k" cx="42.815" cy="42.936" rx="42.815" ry="42.936" transform="translate(692.157 -466.965) rotate(-112.892)"/><ellipse class="j" cx="42.819" cy="42.932" rx="42.819" ry="42.932" transform="matrix(0.984, 0.181, -0.18, 0.984, 676.213, -571.305)"/><ellipse class="j" cx="42.815" cy="42.936" rx="42.815" ry="42.936" transform="translate(663.445 -562.417)"/><ellipse class="j" cx="42.815" cy="42.936" rx="42.815" ry="42.936" transform="translate(659.085 -560.383)"/><ellipse class="j" cx="42.818" cy="42.933" rx="42.818" ry="42.933" transform="matrix(0.988, 0.156, -0.155, 0.988, 661.895, -564.326)"/><ellipse class="j" cx="42.815" cy="42.936" rx="42.815" ry="42.936" transform="translate(650.337 -555.779)"/><ellipse class="j" cx="42.822" cy="42.93" rx="42.822" ry="42.93" transform="matrix(0.974, 0.228, -0.227, 0.974, 656.799, -561.845)"/><ellipse class="j" cx="42.815" cy="42.936" rx="42.815" ry="42.936" transform="translate(641.569 -550.478)"/><ellipse class="j" cx="42.815" cy="42.936" rx="42.815" ry="42.936" transform="translate(637.184 -547.574)"/><ellipse class="j" cx="42.815" cy="42.936" rx="42.815" ry="42.936" transform="translate(632.8 -544.503)"/><ellipse class="j" cx="42.815" cy="42.936" rx="42.815" ry="42.936" transform="translate(628.421 -541.27)"/><ellipse class="j" cx="42.815" cy="42.936" rx="42.815" ry="42.936" transform="translate(624.048 -537.876)"/><ellipse class="j" cx="42.819" cy="42.933" rx="42.819" ry="42.933" transform="matrix(0.987, 0.162, -0.161, 0.987, 627.162, -540.697)"/><ellipse class="j" cx="42.815" cy="42.936" rx="42.815" ry="42.936" transform="translate(615.332 -530.619)"/><ellipse class="j" cx="42.815" cy="42.936" rx="42.815" ry="42.936" transform="translate(610.992 -526.761)"/><ellipse class="j" cx="42.815" cy="42.936" rx="42.815" ry="42.936" transform="translate(606.668 -522.754)"/><ellipse class="j" cx="42.815" cy="42.936" rx="42.815" ry="42.936" transform="translate(602.362 -518.601)"/><ellipse class="j" cx="42.815" cy="42.936" rx="42.815" ry="42.936" transform="translate(598.076 -514.304)"/><ellipse class="j" cx="42.815" cy="42.936" rx="42.815" ry="42.936" transform="translate(593.813 -509.866)"/><ellipse class="j" cx="42.815" cy="42.936" rx="42.815" ry="42.936" transform="translate(589.574 -505.29)"/><ellipse class="j" cx="42.815" cy="42.936" rx="42.815" ry="42.936" transform="translate(585.363 -500.578)"/><ellipse class="k" cx="42.815" cy="42.936" rx="42.815" ry="42.936" transform="translate(601.207 -396.764) rotate(-112.892)"/><ellipse class="j" cx="42.815" cy="42.936" rx="42.815" ry="42.936" transform="translate(577.03 -490.761)"/><ellipse class="l" cx="42.815" cy="42.936" rx="42.815" ry="42.936" transform="translate(572.913 -485.66)"/><ellipse class="l" cx="42.815" cy="42.936" rx="42.815" ry="42.936" transform="translate(568.832 -480.435)"/><ellipse class="l" cx="42.822" cy="42.93" rx="42.822" ry="42.93" transform="matrix(0.974, 0.228, -0.227, 0.974, 575.635, -483.719)"/><ellipse class="l" cx="42.815" cy="42.936" rx="42.815" ry="42.936" transform="translate(561.059 -470.108)"/><ellipse class="l" cx="42.819" cy="42.933" rx="42.819" ry="42.933" transform="matrix(0.987, 0.162, -0.161, 0.987, 564.862, -471.915)"/><ellipse class="l" cx="42.815" cy="42.936" rx="42.815" ry="42.936" transform="translate(553.594 -461.191)"/><ellipse class="l" cx="42.819" cy="42.933" rx="42.819" ry="42.933" transform="matrix(0.987, 0.162, -0.161, 0.987, 557.175, -463.421)"/><ellipse class="l" cx="42.815" cy="42.936" rx="42.815" ry="42.936" transform="translate(545.697 -453.118)"/><ellipse class="l" cx="42.815" cy="42.936" rx="42.815" ry="42.936" transform="translate(541.6 -449.393)"/><ellipse class="l" cx="42.822" cy="42.93" rx="42.822" ry="42.93" transform="matrix(0.974, 0.228, -0.227, 0.974, 548.257, -454.507)"/><ellipse class="l" cx="42.815" cy="42.936" rx="42.815" ry="42.936" transform="translate(533.139 -442.565)"/><ellipse class="l" cx="42.815" cy="42.936" rx="42.815" ry="42.936" transform="translate(528.787 -439.459)"/><ellipse class="l" cx="42.815" cy="42.936" rx="42.815" ry="42.936" transform="translate(524.36 -436.555)"/><ellipse class="l" cx="42.815" cy="42.936" rx="42.815" ry="42.936" transform="translate(519.865 -433.854)"/><ellipse class="m" cx="42.815" cy="42.936" rx="42.815" ry="42.936" transform="translate(535.335 -332.384) rotate(-112.892)"/><ellipse class="l" cx="42.815" cy="42.936" rx="42.815" ry="42.936" transform="translate(510.694 -429.053)"/><ellipse class="l" cx="42.815" cy="42.936" rx="42.815" ry="42.936" transform="translate(506.029 -426.951)"/><ellipse class="l" cx="42.815" cy="42.936" rx="42.815" ry="42.936" transform="translate(501.318 -425.046)"/><ellipse class="l" cx="42.815" cy="42.936" rx="42.815" ry="42.936" transform="translate(496.568 -423.337)"/><ellipse class="m" cx="42.815" cy="42.936" rx="42.815" ry="42.936" transform="matrix(-0.349, -0.937, 0.937, -0.349, 509.434, -323.885)"/><ellipse class="l" cx="42.815" cy="42.936" rx="42.815" ry="42.936" transform="translate(486.972 -420.503)"/><ellipse class="l" cx="42.815" cy="42.936" rx="42.815" ry="42.936" transform="translate(482.137 -419.375)"/><ellipse class="l" cx="42.819" cy="42.933" rx="42.819" ry="42.933" transform="matrix(0.987, 0.162, -0.161, 0.987, 484.763, -424.809)"/><ellipse class="l" cx="42.815" cy="42.936" rx="42.815" ry="42.936" transform="translate(472.422 -417.691)"/><ellipse class="m" cx="42.815" cy="42.936" rx="42.815" ry="42.936" transform="translate(510.37 -313.646) rotate(-135)"/><ellipse class="l" cx="42.815" cy="42.936" rx="42.815" ry="42.936" transform="translate(462.686 -416.762)"/><ellipse class="l" cx="42.815" cy="42.936" rx="42.815" ry="42.936" transform="translate(457.824 -416.578)"/><ellipse class="l" cx="42.815" cy="42.936" rx="42.815" ry="42.936" transform="translate(452.974 -416.578)"/><ellipse class="n" cx="42.815" cy="42.936" rx="42.815" ry="42.936" transform="translate(448.142 -416.763)"/><ellipse class="n" cx="42.815" cy="42.936" rx="42.815" ry="42.936" transform="translate(443.332 -417.13)"/><ellipse class="n" cx="42.815" cy="42.936" rx="42.815" ry="42.936" transform="translate(438.551 -417.678)"/><ellipse class="n" cx="42.815" cy="42.936" rx="42.815" ry="42.936" transform="translate(433.805 -418.407)"/><ellipse class="n" cx="42.819" cy="42.933" rx="42.819" ry="42.933" transform="matrix(0.985, 0.174, -0.173, 0.985, 437.178, -426.114)"/><ellipse class="n" cx="42.815" cy="42.936" rx="42.815" ry="42.936" transform="translate(424.44 -420.401)"/><ellipse class="n" cx="42.815" cy="42.936" rx="42.815" ry="42.936" transform="translate(419.832 -421.663)"/><ellipse class="n" cx="42.815" cy="42.936" rx="42.815" ry="42.936" transform="translate(415.281 -423.1)"/><ellipse class="o" cx="42.815" cy="42.936" rx="42.815" ry="42.936" transform="translate(430.821 -325.742) rotate(-112.892)"/><ellipse class="n" cx="42.815" cy="42.936" rx="42.815" ry="42.936" transform="translate(406.375 -426.496)"/><ellipse class="p" cx="42.815" cy="42.936" rx="42.815" ry="42.936" transform="translate(444.846 -324.966) rotate(-135)"/><ellipse class="p" cx="42.815" cy="42.936" rx="42.815" ry="42.936" transform="translate(417.794 -331.609) rotate(-112.892)"/><ellipse class="q" cx="42.815" cy="42.936" rx="42.815" ry="42.936" transform="translate(393.589 -432.875)"/><ellipse class="q" cx="42.822" cy="42.93" rx="42.822" ry="42.93" transform="matrix(0.974, 0.228, -0.227, 0.974, 400.347, -443.97)"/><ellipse class="q" cx="42.818" cy="42.933" rx="42.818" ry="42.933" transform="matrix(0.988, 0.155, -0.154, 0.988, 392.637, -444.084)"/><ellipse class="p" cx="42.815" cy="42.936" rx="42.815" ry="42.936" transform="translate(424.443 -337.28) rotate(-135)"/><ellipse class="q" cx="42.819" cy="42.933" rx="42.819" ry="42.933" transform="matrix(0.987, 0.162, -0.161, 0.987, 385.328, -450.098)"/><ellipse class="q" cx="42.823" cy="42.928" rx="42.823" ry="42.928" transform="matrix(0.967, 0.254, -0.253, 0.967, 386.448, -456.337)"/><ellipse class="q" cx="42.815" cy="42.936" rx="42.815" ry="42.936" transform="translate(370.646 -450.137)"/><ellipse class="q" cx="42.815" cy="42.936" rx="42.815" ry="42.936" transform="translate(367.229 -453.583)"/><ellipse class="p" cx="42.815" cy="42.936" rx="42.815" ry="42.936" transform="translate(406.76 -353.703) rotate(-135)"/><ellipse class="q" cx="42.822" cy="42.929" rx="42.822" ry="42.929" transform="matrix(0.972, 0.235, -0.234, 0.972, 372.043, -469.832)"/><ellipse class="q" cx="42.815" cy="42.936" rx="42.815" ry="42.936" transform="translate(357.792 -464.875)"/><ellipse class="q" cx="42.819" cy="42.933" rx="42.819" ry="42.933" transform="matrix(0.985, 0.172, -0.171, 0.985, 362.915, -475.68)"/><ellipse class="q" cx="42.815" cy="42.936" rx="42.815" ry="42.936" transform="translate(352.236 -473.184)"/><ellipse class="q" cx="42.815" cy="42.936" rx="42.815" ry="42.936" transform="translate(349.695 -477.57)"/><ellipse class="q" cx="42.815" cy="42.936" rx="42.815" ry="42.936" transform="translate(347.319 -482.107)"/><ellipse class="q" cx="42.815" cy="42.936" rx="42.815" ry="42.936" transform="translate(345.116 -486.796)"/><ellipse class="q" cx="42.819" cy="42.933" rx="42.819" ry="42.933" transform="matrix(0.987, 0.162, -0.161, 0.987, 350.568, -498.006)"/><ellipse class="r" cx="42.815" cy="42.936" rx="42.815" ry="42.936" transform="translate(341.247 -496.621)"/><ellipse class="r" cx="42.822" cy="42.93" rx="42.822" ry="42.93" transform="matrix(0.974, 0.228, -0.227, 0.974, 350.437, -510.386)"/><ellipse class="r" cx="42.822" cy="42.93" rx="42.822" ry="42.93" transform="matrix(0.972, 0.233, -0.232, 0.973, 349.255, -515.839)"/><ellipse class="s" cx="42.815" cy="42.936" rx="42.815" ry="42.936" transform="translate(379.688 -408.974) rotate(-135)"/><ellipse class="r" cx="42.815" cy="42.936" rx="42.815" ry="42.936" transform="translate(335.818 -518.03)"/><ellipse class="r" cx="42.822" cy="42.93" rx="42.822" ry="42.93" transform="matrix(0.974, 0.228, -0.227, 0.974, 345.821, -532.372)"/><ellipse class="r" cx="42.815" cy="42.936" rx="42.815" ry="42.936" transform="translate(334.351 -529.594)"/><ellipse class="r" cx="42.815" cy="42.936" rx="42.815" ry="42.936" transform="translate(333.949 -535.586)"/><ellipse class="s" cx="42.815" cy="42.936" rx="42.815" ry="42.936" transform="translate(353.802 -442.748) rotate(-112.892)"/><ellipse class="r" cx="42.819" cy="42.933" rx="42.819" ry="42.933" transform="matrix(0.987, 0.162, -0.161, 0.987, 341.314, -554.358)"/><ellipse class="r" cx="42.822" cy="42.929" rx="42.822" ry="42.929" transform="matrix(0.971, 0.241, -0.24, 0.971, 345.688, -563.456)"/><ellipse class="r" cx="42.815" cy="42.936" rx="42.815" ry="42.936" transform="translate(334.684 -560.933)"/><ellipse class="s" cx="42.815" cy="42.936" rx="42.815" ry="42.936" transform="translate(378.298 -464.121) rotate(-135)"/><ellipse class="r" cx="42.815" cy="42.936" rx="42.815" ry="42.936" transform="translate(336.538 -574.415)"/><ellipse class="s" cx="42.815" cy="42.936" rx="42.815" ry="42.936" transform="translate(380.672 -477.867) rotate(-135)"/></g></svg>